<svg width="65" height="113" viewBox="0 0 65 113" fill="none" xmlns="http://www.w3.org/2000/svg">
<path d="M60.2582 66.4038L59.9781 66.3851L60.2582 66.4038ZM56.983 81.8442L56.7037 81.8163L56.983 81.8442ZM55.317 105.607C55.2618 105.752 55.3345 105.914 55.4794 105.969C55.6243 106.024 55.7865 105.951 55.8417 105.807L55.317 105.607ZM54.8734 51.1122C57.2201 54.867 60.4391 59.4707 59.9781 66.3851L60.5384 66.4225C61.0132 59.3002 57.6817 54.5461 55.3495 50.8147L54.8734 51.1122ZM59.9781 66.3851C59.7312 70.0892 59.0712 72.4052 58.3942 74.56C57.715 76.7217 57.0111 78.7416 56.7037 81.8163L57.2624 81.8721C57.5631 78.8642 58.2479 76.8987 58.9298 74.7283C59.6139 72.551 60.2873 70.188 60.5384 66.4225L59.9781 66.3851ZM56.7037 81.8163C56.3265 85.5879 56.9155 89.1517 57.1238 92.9136C57.333 96.6914 57.1699 100.743 55.317 105.607L55.8417 105.807C57.7319 100.845 57.8963 96.708 57.6844 92.8826C57.4717 89.0413 56.8909 85.5868 57.2624 81.8721L56.7037 81.8163Z" fill="black"/>
<path d="M34.8114 4.24646C67.3827 -7.08895 72.522 42.5203 50.9005 49.5598C30.7812 56.1103 1.10972 15.9753 34.8114 4.24646Z" fill="#39AC37"/>
<path d="M53.6258 52.9757C52.2192 52.1622 51.8642 48.0876 52.2151 47.7949C52.5659 47.5022 56.6405 48.7384 56.9023 49.8454C57.1641 50.9524 53.9553 53.1662 53.6258 52.9757Z" fill="#39AC37"/>
<path d="M31.7171 19.6149C36.0804 16.6605 40.1335 20.4281 42.0107 21.9543C42.1464 19.2737 42.5408 13.1043 49.0291 14.468C54.314 15.5789 55.3031 21.4388 53.708 26.6332C52.2579 31.3554 49.4746 35.6884 47.294 37.7768C44.9514 37.3124 38.6378 36.1787 33.5886 32.7158C28.5394 29.2528 28.2462 21.965 31.7171 19.6149Z" fill="white"/>
<path d="M34.5244 108.22L34.9391 96.1163L34.5244 92.9124L38.4065 92.2458C38.5741 92.1027 38.6708 92.1185 38.6708 92.2004L38.4065 92.2458C38.0886 92.5174 37.5156 93.3615 36.8639 95.413C35.62 99.3289 35.8862 106.03 36.3009 106.742C36.7155 107.454 40.1351 106.73 41.0749 107.445C42.0107 108.157 39.5001 110 37.0122 110C35.022 110 34.5244 108.813 34.5244 108.22Z" fill="black"/>
<path d="M23.6035 108.22L23.509 96.4097L23.6035 92.9125L20.5434 92.3096C20.4142 92.1468 20.2511 92.1273 19.9896 92.2005L20.5434 92.3096C20.8183 92.6558 20.9401 93.6504 21.53 95.7813C22.6142 99.6972 22.2528 106.398 21.8914 107.11C21.53 107.822 18.5493 107.054 17.8943 107.801C16.9585 108.869 19.2668 110 21.4352 110C23.1698 110 23.6035 108.813 23.6035 108.22Z" fill="black"/>
<path d="M51.8364 92.6056C50.3391 91.857 47.4694 90.1102 46.2217 89.3304L46.2217 86.5231C47.4694 87.7708 49.7309 89.7984 51.8364 91.202C53.24 92.1378 56.9832 93.0736 57.9189 92.6057V94.0094C57.451 94.0094 54.1758 93.7754 51.8364 92.6056Z" fill="black"/>
<path d="M55.9988 93.4068C56.0792 92.4942 56.416 91.6299 56.9491 91.4985C57.4821 91.367 58.2364 91.9975 58.4478 92.2448C59.0387 92.936 59.4134 93.1225 59.3129 94.2633C59.2124 95.404 57.9879 95.985 57.2386 95.6118C56.0538 95.0218 55.8983 94.5475 55.9988 93.4068Z" fill="black"/>
<path d="M3.36953 74.8139C4.50286 76.0791 6.97537 78.4196 8.06996 79.4318L10.4847 78.4612C8.93963 77.5757 6.42971 75.799 4.49814 74.1148C2.73219 72.575 1.6503 69.9123 1.30642 68.6891L0.470806 69.6894C0.964823 70.8704 1.59869 72.837 3.36953 74.8139Z" fill="black"/>
<path d="M1.17462 70.6705C1.87782 70.4959 2.06063 69.9533 2.30478 69.4944C2.54892 69.0356 2.39913 68.3153 2.16856 67.5761C1.92235 66.7868 1.23283 65.8175 0.514007 65.996C-0.204818 66.1745 0.168034 67.9889 0.22283 68.3685C0.380066 69.4579 0.62881 70.8061 1.17462 70.6705Z" fill="black"/>
<path d="M17.5485 59.934C19.3522 58.966 24.0091 57.5139 27.1656 57.5139C31.675 57.5139 36.7255 58.2884 38.89 59.45C41.5956 60.9021 45.5064 63.3222 47.761 67.1944C50.0157 71.0666 51.3685 74.4147 51.3685 77.3589C51.3685 80.7471 51.3083 84.1917 48.6897 89.3205C45.2298 96.0968 41.5064 97.3481 39.7027 97.8321C37.7463 98.3571 34.8315 99.624 30.3222 99.624C25.8128 99.624 21.7415 97.9042 18.134 96.9362C14.5266 95.9681 10.4983 92.1165 9.59643 90.6644C8.69456 89.2124 7.42766 84.7645 6.87363 82.6832C5.97175 79.295 6.72603 74.9388 7.17697 72.5187C7.6279 70.0986 10.4811 65.7423 11.383 64.7743C12.2848 63.8062 15.7447 60.9021 17.5485 59.934Z" fill="#BF8C3F"/>
<path d="M36.1862 82.6073C37.5622 82.6887 36.8548 89.8959 28.9292 89.4267C21.532 88.9889 21.1115 82.4263 22.1994 81.9605C23.2873 81.4947 24.2935 84.2053 28.9431 84.4806C34.7552 84.8246 34.8103 82.5258 36.1862 82.6073Z" fill="black"/>
<path d="M26.0768 76.4859C26.8208 76.4627 26.8389 73.408 22.5536 73.5415C18.554 73.6661 18.3349 75.8108 18.9157 76.0981C19.4965 76.3854 20.0776 74.8403 22.5916 74.762C25.7341 74.6641 25.3329 76.509 26.0768 76.4859Z" fill="black"/>
<path d="M40.4099 77.9677C41.0988 78.0251 40.9684 74.8302 36.9999 74.5C33.8464 74.2376 33.1928 76.3572 33.8464 76.809C34.5 77.2607 34.6718 75.3063 36.9999 75.5C39.9101 75.7422 39.7209 77.9104 40.4099 77.9677Z" fill="black"/>
<path d="M39.6711 97.7525C39.1319 97.4828 37.2721 94.9327 37.7996 94.4772C38.327 94.0218 40.5176 93.0546 41.0748 93.0736C41.7713 93.0973 43.0426 95.4752 43.0426 96.0781C43.0426 96.8167 40.6069 98.2204 39.6711 97.7525Z" fill="#684120"/>
<path d="M24.355 57.7101C24.95 57.305 28.8496 56.5278 29.6643 57.2248C30.479 57.9219 31.2051 59.4203 30.8635 59.8508C30.3234 60.5314 27.1836 61.7302 25.719 61.1627C25.064 60.9089 23.76 58.1152 24.355 57.7101Z" fill="#684120"/>
<path d="M33.0993 66.8621C33.3463 65.874 36.8047 63.8978 37.7929 64.3918C38.7811 64.8859 39.028 66.8621 38.7863 67.8445C38.6543 68.3809 35.8167 70.8146 34.8285 70.3205C34.0875 69.95 32.891 67.6957 33.0993 66.8621Z" fill="#684120"/>
<path d="M47.0766 80.9025C47.3094 79.606 49.0534 79.0666 50.1302 79.4667C51.2069 79.8668 51.2923 83.1529 51.0424 83.7922C50.7924 84.4316 49.7669 86.0031 48.9743 86.2782C48.1336 86.5698 46.8802 81.9964 47.0766 80.9025Z" fill="#684120"/>
<path d="M14.185 73.2888C13.5685 72.8778 11.5342 68.3184 12.1969 67.3243C12.8596 66.3303 15.643 65.7338 16.1732 65.9989C16.8359 66.3303 18.4927 69.3125 18.1613 69.9752C17.83 70.6379 15.1791 73.9515 14.185 73.2888Z" fill="#684120"/>
<path d="M47.5009 71.3509C46.9039 70.9754 42.3666 66.5069 43.0084 65.5987C43.6502 64.6904 45.8965 64.9932 46.6652 65.3535C47.3078 65.6546 49.9604 69.4348 49.4263 70.4427C49.1054 71.0482 48.4636 71.9564 47.5009 71.3509Z" fill="#684120"/>
<path d="M19.4656 97.8516C18.7758 97.7048 12.9765 95.0738 13.266 94C13.5554 92.9262 15.7684 92.4363 16.6142 92.5096C17.3213 92.5708 21.1141 95.2052 20.96 96.3354C20.8675 97.0144 20.578 98.0882 19.4656 97.8516Z" fill="#684120"/>
<path d="M7.71225 86.8698C7.40384 86.1513 5.60548 81.9615 6.69687 81.4931C7.79477 81.022 9.87056 82.6498 10.1708 83.4838C10.9878 85.7536 10.255 88.8732 9.19071 89.4964C8.55132 89.8708 8.18879 87.9802 7.71761 86.8823L7.71225 86.8698Z" fill="#684120"/>
</svg>
