<svg width="56" height="56" viewBox="0 0 56 56" fill="none" xmlns="http://www.w3.org/2000/svg">
<path opacity="0.08" fill-rule="evenodd" clip-rule="evenodd" d="M28 56C43.464 56 56 43.464 56 28C56 12.536 43.464 0 28 0C12.536 0 0 12.536 0 28C0 43.464 12.536 56 28 56Z" fill="#39AC37"/>
<path d="M25 40C24.4 40 24 39.6 24 39V36H20C18.9 36 18 35.1 18 34V22C18 20.9 18.9 20 20 20H36C37.1 20 38 20.9 38 22V34C38 35.1 37.1 36 36 36H29.9L26.2 39.7C26 39.9 25.8 40 25.5 40H25ZM26 34V37.1L29.1 34H36V22H20V34H26ZM32.3 24L30.9 27H33V31H29V26.8L30.3 24H32.3ZM26.3 24L24.9 27H27V31H23V26.8L24.3 24H26.3Z" fill="#39AC37"/>
</svg>
