<svg width="56" height="56" fill="none" xmlns="http://www.w3.org/2000/svg"><path opacity=".08" fill-rule="evenodd" clip-rule="evenodd" d="M28 56c15.464 0 28-12.536 28-28S43.464 0 28 0 0 12.536 0 28s12.536 28 28 28z" fill="#39AC37"/><g clip-path="url(#clip0)" fill="#39AC37"><path d="M32.189 38H19.867c-.484 0-.88-.328-.88-.73V20.69c0-.943.918-1.709 2.052-1.709h9.978c1.133 0 2.052.766 2.052 1.709v16.577c0 .406-.39.734-.88.734zm-11.442-1.464H31.31V20.69c0-.136-.132-.245-.292-.245h-9.973c-.16 0-.291.11-.291.245v15.847h-.006z"/><path d="M29.846 20.444h-7.63c-.484 0-.88-.375-.88-.834v-1.667c0-1.073.919-1.943 2.052-1.943h5.28c1.134 0 2.052.87 2.052 1.943v1.667c.006.464-.39.834-.874.834zm-6.75-1.667h5.87v-.834c0-.15-.133-.276-.292-.276h-5.28c-.16 0-.292.125-.292.276v.834h-.006zM39.252 38H16.748c-.413 0-.748-.375-.748-.834 0-.458.335-.833.748-.833h22.504c.412 0 .748.375.748.833 0 .459-.336.834-.748.834z"/><path d="M36.59 38c-.485 0-.88-.375-.88-.833v-4.163c0-.458.395-.833.88-.833.484 0 .88.375.88.833v4.163c0 .458-.39.833-.88.833z"/><path d="M36.59 33.551c-1.293 0-2.35-.995-2.35-2.225 0-1.224 1.051-2.224 2.35-2.224 1.298 0 2.348.995 2.348 2.224 0 1.23-1.05 2.225-2.348 2.225zm0-2.777c-.325 0-.589.25-.589.558 0 .307.264.557.589.557.324 0 .588-.25.588-.557 0-.308-.264-.558-.588-.558zM28.085 38h-4.109c-.484 0-.88-.375-.88-.834v-5c0-.46.396-.834.88-.834h4.11c.483 0 .88.375.88.833v5.001c0 .459-.397.834-.88.834zm-3.229-1.667h2.35v-3.334h-2.35v3.334zm2.641-8.335h-2.932c-.484 0-.88-.376-.88-.834 0-.458.396-.833.88-.833h2.932c.484 0 .88.375.88.833 0 .458-.396.834-.88.834zm0-3.335h-2.932c-.484 0-.88-.375-.88-.833 0-.459.396-.834.88-.834h2.932c.484 0 .88.375.88.834 0 .458-.396.833-.88.833z"/></g><defs><clipPath id="clip0"><path fill="#fff" d="M16 16h24v22H16z"/></clipPath></defs></svg>