<svg width="56" height="56" fill="none" xmlns="http://www.w3.org/2000/svg"><path opacity=".08" fill-rule="evenodd" clip-rule="evenodd" d="M28 56c15.464 0 28-12.536 28-28S43.464 0 28 0 0 12.536 0 28s12.536 28 28 28z" fill="#39AC37"/><g clip-path="url(#clip0)"><path d="M19.21 29.196c.172.112.37.166.563.166.325 0 .65-.152.843-.435 1.64-2.363 4.388-3.772 7.338-3.772 2.945 0 5.682 1.404 7.328 3.757.315.45.944.568 1.412.264a.956.956 0 00.274-1.36c-1.31-1.879-3.194-3.263-5.342-4.007 1.29-1.012 2.112-2.559 2.112-4.28C33.738 16.48 31.163 14 28 14c-3.164 0-5.738 2.48-5.738 5.528 0 1.713.812 3.244 2.087 4.262a10.79 10.79 0 00-5.419 4.05.95.95 0 00.28 1.356zM28 15.956c2.046 0 3.707 1.6 3.707 3.572S30.047 23.1 28 23.1c-2.047 0-3.707-1.6-3.707-3.572 0-1.971 1.66-3.571 3.707-3.571zm4.052 15.368l-1.513 1.052a.605.605 0 00-.234.69l.61 1.702a.563.563 0 01.03.22c-.02.455-.614.768-1.051.465l-1.518-1.052a.655.655 0 00-.752 0l-1.513 1.052c-.437.303-1.036-.01-1.051-.465a.563.563 0 01.03-.22l.61-1.702a.605.605 0 00-.234-.69l-1.514-1.052c-.502-.352-.243-1.18.376-1.18h1.874c.28 0 .523-.102.61-.356l.578-1.713a.63.63 0 01.61-.425c.259 0 .513.142.61.425l.578 1.713c.086.254.335.357.61.357h1.873c.625 0 .884.832.381 1.179zm8.684 3.424L39.222 35.8a.605.605 0 00-.233.69l.61 1.703a.562.562 0 01.03.22c-.02.455-.615.768-1.051.465l-1.519-1.052a.656.656 0 00-.751 0l-1.514 1.052c-.436.303-1.036-.01-1.05-.465a.564.564 0 01.03-.22l.609-1.703a.605.605 0 00-.234-.69l-1.513-1.051c-.503-.353-.244-1.18.376-1.18h1.874c.279 0 .523-.102.61-.357l.578-1.712a.63.63 0 01.61-.426.63.63 0 01.609.426l.579 1.712c.086.255.335.357.609.357h1.874c.625 0 .884.832.38 1.18zm-17.367 0L21.855 35.8a.605.605 0 00-.233.69l.609 1.703a.562.562 0 01.03.22c-.02.455-.614.768-1.05.465l-1.519-1.052a.655.655 0 00-.752 0l-1.513 1.052c-.437.303-1.036-.01-1.051-.465a.562.562 0 01.03-.22l.61-1.703a.605.605 0 00-.234-.69l-1.518-1.051c-.503-.348-.244-1.18.38-1.18h1.874c.28 0 .524-.102.61-.357l.579-1.712a.63.63 0 01.61-.426.63.63 0 01.609.426l.579 1.712c.086.255.335.357.609.357h1.874c.624 0 .883.832.38 1.18z" fill="#39AC37"/></g><defs><clipPath id="clip0"><path fill="#fff" d="M15 14h26v25H15z"/></clipPath></defs></svg>