<svg width="56" height="56" version="1.1" id="Layer_1" xmlns="http://www.w3.org/2000/svg" x="0" y="0" xml:space="preserve"><style>.st1{fill-rule:evenodd;clip-rule:evenodd;fill:#39ac37}</style><path d="M28 56c15.5 0 28-12.5 28-28S43.5 0 28 0 0 12.5 0 28s12.5 28 28 28z" opacity=".08" fill-rule="evenodd" clip-rule="evenodd" fill="#39ac37"/><path class="st1" d="M28.1 15.8c-1.3 0-2.4 1.1-2.4 2.4 0 1.3 1.1 2.4 2.4 2.4 1.3 0 2.4-1.1 2.4-2.4 0-1.3-1.1-2.4-2.4-2.4zM24 18.2c0-2.3 1.9-4.2 4.2-4.2 2.3 0 4.2 1.9 4.2 4.2s-1.9 4.2-4.2 4.2c-2.4-.1-4.2-1.9-4.2-4.2zm-6.1 11.9l1.4 3.7h3.9v1.9h-4.4c-.6 0-1.1-.4-1.2-1l-1.9-5.1v-.2c0-.7.6-1.2 1.2-1.2h22.5c.7 0 1.2.6 1.2 1.2v.2l-1.9 5.1c-.1.6-.6 1-1.2 1h-3.8v-1.9H37l1.4-3.7H17.9z"/><path class="st1" d="M23.5 33.3l.8 4.7c.1.5-.3.9-.8 1-.5.1-1-.3-1.1-.7l-.9-5.4v-.1c0-.2 0-.4.1-.6 0-.1.1-.2.3-.4.1-.1.4-.3.7-.3h11.1c.3 0 .6.2.7.3.1.1.2.3.3.3.1.2.1.4.1.6v.1l-.9 5.4c-.1.5-.6.8-1.1.7-.5-.1-.9-.5-.8-1l.8-4.7h-9.3zm-2.9-5.4c0-2 1.3-3.9 3.4-3.9h8.3c2 0 3.4 1.9 3.4 3.9v1.9h-15v-1.9zm3.4-2c-.7 0-1.5.7-1.5 2v.1h11.3v-.1c0-1.3-.8-2-1.5-2H24z"/><path d="M36.1 24c1.2 0 2.1-.9 2.1-2.1 0-1.2-.9-2.1-2.1-2.1s-2.1 1-2.1 2.1c0 1.2.9 2.1 2.1 2.1z" fill="#39ac37"/><path class="st1" d="M34.8 22.5l.3-.9.3-.9h.1c.1 0 .1.1.2.2.2.1.5.3.7.6.6.6 1.3 1.5 1.7 2.8.4 1.3.6 2.4.7 3.3 0 .4.1.8.1 1v.4h-1.6v-.2c0-.2 0-.5-.1-.8-.1-.7-.2-1.7-.6-2.8-.3-1-.8-1.6-1.2-2-.2-.2-.4-.3-.5-.4 0-.3 0-.3-.1-.3z"/></svg>