<svg width="56" height="56" fill="none" xmlns="http://www.w3.org/2000/svg"><path opacity=".08" fill-rule="evenodd" clip-rule="evenodd" d="M28 56c15.464 0 28-12.536 28-28S43.464 0 28 0 0 12.536 0 28s12.536 28 28 28z" fill="#39AC37"/><path d="M38.4 32.6v-7.4l.3-.1c1.1-.4 1.3-1 1.3-1.4 0-.4-.2-1-1.3-1.4l-9.1-3c-.6-.2-1.3-.3-2.1-.3s-1.5.1-2.1.3l-9.1 3c-1.1.4-1.3 1-1.3 1.4 0 .4.2 1 1.3 1.4l3.4 1.1v4c0 .8.4 1.8 2.6 2.6 1.4.5 3.3.8 5.2.8 1.9 0 3.8-.3 5.2-.8 2.1-.8 2.6-1.8 2.6-2.6v-4l1.7-.5v6.9c-.9.3-1.6 1.3-1.6 2.4v3.5c0 1.4 1 2.5 2.3 2.5 1.3 0 2.3-1.1 2.3-2.5V35c0-1.1-.7-2.1-1.6-2.4zm-5.2-2.5c0 .1-.2.5-1.4 1-1.1.4-2.6.6-4.3.6-1.6 0-3.1-.2-4.3-.6-1.2-.4-1.4-.9-1.4-1V27l3.8 1.3c.5.2 1.2.3 1.9.3s1.4-.1 1.9-.3l3.8-1.3v3.1zm.5-5.3L29 26.3c-.4.1-.9.2-1.5.2s-1.1-.1-1.5-.2l-4.7-1.5-3.1-1 7.8-2.7c.4-.1.9-.2 1.5-.2s1.1.1 1.5.2l7.9 2.6-3.2 1.1zm4.7 13.5c0 .5-.3.8-.7.8-.4 0-.7-.4-.7-.8v-3.2c0-.5.3-.8.7-.8.4 0 .7.4.7.8v3.2z" fill="#39AC37"/></svg>