<svg width="56" height="56" xmlns="http://www.w3.org/2000/svg"><g fill="#39AC37" fill-rule="evenodd"><circle opacity=".08" cx="28" cy="28" r="28"/><path d="M27.5 19.5c.28 0 .5.22.5.5v2h6v6h2c.28 0 .5.22.5.5s-.22.5-.5.5h-2v6h-2.12a4.71 4.71 0 00-4.38-3 4.71 4.71 0 00-4.38 3H21v-2.12c1.75-.68 3-2.39 3-4.38 0-1.99-1.24-3.7-2.99-4.38L21 22h6v-2c0-.28.22-.5.5-.5zm0-2A2.5 2.5 0 0025 20h-4c-1.1 0-1.99.9-1.99 2v3.8h.29c1.49 0 2.7 1.21 2.7 2.7 0 1.49-1.21 2.7-2.7 2.7H19V35c0 1.1.9 2 2 2h3.8v-.3c0-1.49 1.21-2.7 2.7-2.7 1.49 0 2.7 1.21 2.7 2.7v.3H34c1.1 0 2-.9 2-2v-4a2.5 2.5 0 000-5v-4c0-1.1-.9-2-2-2h-4a2.5 2.5 0 00-2.5-2.5z" fill-rule="nonzero"/></g></svg>