<svg width="56" height="56" fill="none" xmlns="http://www.w3.org/2000/svg"><path opacity=".08" fill-rule="evenodd" clip-rule="evenodd" d="M28 56c15.464 0 28-12.536 28-28S43.464 0 28 0 0 12.536 0 28s12.536 28 28 28z" fill="#39AC37"/><path fill-rule="evenodd" clip-rule="evenodd" d="M31.746 31.317c0 1.08-1.46 2-3.619 2-2.35 0-4.095-1.206-4.095-2.666H20c0 3.746 3.556 6.127 8.127 6.127 4.54 0 7.873-2.35 7.873-5.46 0-6.604-11.81-3.874-11.81-6.826 0-1.175 1.397-2.032 3.62-2.032 2.38 0 3.777 1.46 3.777 2.89h4.032c0-3.747-3.238-6.35-7.81-6.35-4.54 0-7.714 2.508-7.714 5.492 0 6.794 11.651 4.032 11.651 6.825z" fill="#39AC37"/></svg>