<svg width="56" height="56" fill="none" xmlns="http://www.w3.org/2000/svg"><path opacity=".08" fill-rule="evenodd" clip-rule="evenodd" d="M28 56c15.464 0 28-12.536 28-28S43.464 0 28 0 0 12.536 0 28s12.536 28 28 28z" fill="#39AC37"/><path d="M36.75 19.833h-2.5V17.5h-12.5v2.333h-2.5c-1.375 0-2.5 1.05-2.5 2.334v1.166c0 2.975 2.4 5.402 5.488 5.764.787 1.75 2.474 3.068 4.512 3.453v3.617h-2.667A2.333 2.333 0 0021.75 38.5h12.5a2.333 2.333 0 00-2.333-2.333H29.25V32.55c2.038-.385 3.725-1.703 4.513-3.453 3.087-.362 5.487-2.789 5.487-5.764v-1.166c0-1.284-1.125-2.334-2.5-2.334zm-17.5 3.5v-1.166h2.5v4.456c-1.45-.49-2.5-1.773-2.5-3.29zm8.75 7c-2.063 0-3.75-1.575-3.75-3.5v-7h7.5v7c0 1.925-1.688 3.5-3.75 3.5zm8.75-7c0 1.517-1.05 2.8-2.5 3.29v-4.456h2.5v1.166z" fill="#39AC37"/></svg>