<svg width="56" height="56" fill="none" xmlns="http://www.w3.org/2000/svg"><path opacity=".08" fill-rule="evenodd" clip-rule="evenodd" d="M28 56c15.464 0 28-12.536 28-28S43.464 0 28 0 0 12.536 0 28s12.536 28 28 28z" fill="#39AC37"/><path d="M17 20.095h8.4c0-1.152.945-2.095 2.1-2.095 1.155 0 2.1.943 2.1 2.095H38v2.096h-1.05v11.523h-6.09L32.75 40h-2.1l-1.89-6.286h-2.52L24.35 40h-2.1l1.89-6.286h-6.09V22.191H17v-2.096zm3.15 2.096v9.428h14.7v-9.428h-14.7zm7.245 7.228c-.105 0-.315.105-.42.105-.315 0-.525-.21-.525-.524v-4.19c0-.315.21-.524.525-.524.105 0 .315.104.42.21l1.47 1.466c.315.314.63.628.63 1.047 0 .42-.315.63-.63 1.048l-1.47 1.362z" fill="#39AC37"/></svg>