<svg width="56" height="56" fill="none" xmlns="http://www.w3.org/2000/svg"><circle opacity=".1" cx="28" cy="28" r="28" fill="#39AC37"/><path fill-rule="evenodd" clip-rule="evenodd" d="M37.45 25.9c-.486-4.767-4.559-8.4-9.45-8.4-4.18 0-7.68 2.541-8.925 6.3-3.277.745-5.775 3.854-5.775 7.35a7.347 7.347 0 0 0 7.35 7.35H36.4c4.2 0 6.3-3.181 6.3-6.3 0-3.14-2.246-5.828-5.25-6.3Zm-16.38-1.44c.97-2.927 3.686-4.86 6.931-4.86 3.816 0 6.984 2.82 7.361 6.513a2.1 2.1 0 0 0 1.763 1.861l.203.038C39.2 28.41 40.6 30.159 40.6 32.2c0 2.417-1.58 4.2-4.2 4.2H20.65l-.228-.005A5.247 5.247 0 0 1 15.4 31.15c0-2.495 1.8-4.77 4.141-5.302a2.1 2.1 0 0 0 1.528-1.388Z" fill="#39AC37"/></svg>