<svg width="56" height="56" fill="none" xmlns="http://www.w3.org/2000/svg"><path opacity=".08" fill-rule="evenodd" clip-rule="evenodd" d="M28 56c15.5 0 28-12.5 28-28S43.5 0 28 0 0 12.5 0 28s12.5 28 28 28z" fill="#39AC37"/><path d="M20.1 22.273v14.636h14.7V39H20.1c-1.155 0-2.1-.94-2.1-2.09V22.272h2.1zm16.8-4.182c1.155 0 2.1.94 2.1 2.09v12.546c0 1.15-.945 2.091-2.1 2.091H24.3c-1.155 0-2.1-.94-2.1-2.09V20.181c0-1.15.945-2.091 2.1-2.091h3.36C28.08 16.836 29.235 16 30.6 16s2.52.836 2.94 2.09h3.36zm-6.3 0c-.63 0-1.05.523-1.05 1.045 0 .523.42 1.046 1.05 1.046.63 0 1.05-.418 1.05-1.046 0-.627-.42-1.045-1.05-1.045zm-4.2 4.182v-2.091h-2.1v12.545h12.6V20.182h-2.1v2.09h-8.4zm2.1 8.363v-6.272l5.25 3.136" fill="#39AC37"/></svg>