<svg width="119" height="32" fill="none" xmlns="http://www.w3.org/2000/svg"><path fill-rule="evenodd" clip-rule="evenodd" d="M47.255 12.917h-2.882c-.033-1.395-1.019-2.19-2.355-2.19-1.145 0-2.482.444-2.482 1.84 0 3.173 8.112 1.077 8.112 6.279 0 3.2-2.699 4.663-5.547 4.663-3.25 0-5.948-1.172-5.914-4.817h3.066c0 1.583.835 2.66 2.472 2.66 1.211 0 2.815-.444 2.815-1.933 0-3.328-7.986-1.078-7.986-6.434 0-3.174 2.882-4.406 5.547-4.406 2.832-.008 4.97 1.386 5.154 4.338ZM59.117 23.218l-1.395-4.757c-.309-1.044-.492-2.096-.71-3.14-.158.761-.275 1.523-.492 2.25l-.218.796L55 23.217h-3.433l-3.191-9.992h3.283l1.361 5.236.184.727.159.702.184 1.24c.159-1.206.434-2.344.743-3.49l1.211-4.407h3.342l1.27 4.595c.3 1.07.534 2.164.684 3.268l.092-.573c.126-.95.376-1.874.652-2.824l1.211-4.474h3.124l-3.341 9.993h-3.416Z" fill="#000"/><path d="M70.227 13.233H67.32v9.994h2.907v-9.994ZM70.327 8.887h-3.1v2.472h3.1V8.887Z" fill="#000"/><path fill-rule="evenodd" clip-rule="evenodd" d="M80.076 15.86h-2.598c-.058-.727-.71-1.112-1.395-1.112-.618 0-1.52.188-1.487 1.018.033.633.71.821 1.211.95l1.111.282c1.704.385 3.65 1.112 3.65 3.2 0 2.54-2.539 3.302-4.585 3.302-2.014 0-3.993-.915-4.152-3.14h2.69c.092.89.777 1.335 1.612 1.335.743 0 1.704-.317 1.704-1.24 0-1.9-5.822-.54-5.822-4.407 0-2.344 2.289-3.106 4.21-3.106 1.763 0 3.533.728 3.81 2.695l.04.223ZM89.649 15.86h-2.607c-.058-.727-.71-1.112-1.395-1.112-.618 0-1.52.188-1.487 1.018.034.633.71.821 1.212.95l1.11.282c1.705.385 3.651 1.112 3.651 3.2 0 2.54-2.54 3.302-4.586 3.302-2.013 0-3.993-.915-4.151-3.14h2.698c.092.89.777 1.335 1.612 1.335.743 0 1.704-.317 1.704-1.24 0-1.9-5.822-.54-5.822-4.407 0-2.344 2.288-3.106 4.21-3.106 1.762 0 3.533.728 3.809 2.695l.042.223ZM103.331 16.116c1.737-.505 3.032-1.582 3.032-3.55 0-2.755-2.506-3.68-4.828-3.68h-5.789v14.332h2.999v-5.801h2.356c2.698 0 2.046 3.841 2.481 5.8h3.282c-1.486-2.694.31-6.34-3.533-7.1Zm-2.414-1.043h-2.172v-3.936h2.197c1.236 0 2.264.539 2.264 1.933 0 1.43-1.019 2.002-2.289 2.002ZM112.804 21.704c-1.546 0-1.83-1.36-1.83-2.695h6.441c0-3.2-1.111-6.058-4.736-6.058-3.125 0-4.703 2.601-4.703 5.553 0 3.08 1.796 5.013 4.803 5.013 2.046 0 4.151-.89 4.302-3.234h-2.598c-.192.942-.719 1.42-1.679 1.42Zm-.184-6.948c1.454 0 1.738 1.241 1.796 2.439h-3.442c.034-1.078.351-2.439 1.646-2.439Z" fill="#000"/><path d="M13.766 2C6.165 2 0 8.314 0 16.1s6.165 14.1 13.766 14.1c7.602 0 13.758-6.314 13.758-14.1S21.36 2 13.766 2Zm-3.692 21.278H7.008v-9.146h3.066v9.146Zm5.204 0h-3.065v-9.146h3.065v9.146Zm5.238 0H17.45v-9.146h3.066v9.146Zm.125-11.37H6.883v-2.97h13.75v2.97h.008Z" fill="#000"/></svg>