<svg width="153" height="32" fill="none" xmlns="http://www.w3.org/2000/svg"><g clip-path="url(#clip0)" fill="#5DC2DB"><path opacity=".85" d="M42.266.801h5.208c-.2 1.653-.2 4.407-.2 7.011 0 0 .05 7.662.3 9.165H44.57c-.952 0-1.453-.501-1.653-1.102-1.402 1.052-3.205 1.502-4.707 1.502-5.559 0-6.26-2.904-6.26-5.809V7.061c0-2.554-.1-4.858-.3-6.21h3.104c1.403 0 2.104.852 2.104 2.304v6.56c0 3.405.65 4.607 3.455 4.607.751 0 1.602 0 2.253-.25l-.15-5.96c.05-2.103-.05-5.658-.15-7.31zm10.016 16.176c.2-1.703.2-7.312.2-7.312 0-2.604-.2-7.662-.35-9.014h3.005c1.001 0 1.652.4 1.852 1.152C58.442.75 59.994.25 61.547.25c5.458 0 6.31 3.356 6.31 5.86v4.557c0 2.554.15 5.008.35 6.36h-3.155c-1.452 0-2.103-1.052-2.103-2.454v-6.56c0-2.604-.25-4.608-3.506-4.608-.75 0-1.602.15-2.203.401l.05 5.86c0 2.052 0 4.056.2 7.36h-5.208M82.029.751c.85 0 2.353-.05 3.054-.2-.1.5-.5 1.803-.75 2.353-.451.902-1.103 1.252-3.306 1.252h-1.753v5.509c0 2.053.05 5.709.25 7.412h-5.258c.2-1.703.25-5.359.25-7.412V4.156h-1.702c-1.452 0-2.604.1-3.205.451l-.05-2.053c0-1.252.25-1.803 2.103-1.803H82.03m20.681 8.063c0 5.458-3.105 8.814-8.764 8.814-5.609 0-8.513-3.055-8.513-8.664 0-5.509 3.054-8.714 8.713-8.714 5.609.05 8.564 3.055 8.564 8.564zm-12.47.05c0 3.756 1.302 5.458 3.906 5.458 2.504 0 3.756-1.702 3.756-5.458 0-3.756-1.252-5.509-3.756-5.509-2.554 0-3.906 1.753-3.906 5.509zm29.646 9.064c-2.003 0-2.403-.751-3.655-2.554-.701-1.002-2.855-4.657-3.205-5.409-.201-.4-.251-.7.15-.85 1.602-.952 2.053-1.954 2.053-3.056 0-1.302-.551-2.403-2.404-2.403-.55 0-1.352.05-1.752.2v5.458c0 2.054.05 6.01.25 7.712h-5.058c.2-1.602.251-5.107.251-7.712 0 0-.051-7.01-.351-8.513 2.404 0 5.909-.15 7.462-.15 2.754 0 6.41.55 6.41 4.657 0 1.703-.802 3.055-2.154 3.906-.25.2-.25.3 0 .701 1.753 2.604 3.856 5.559 5.759 7.612-.751.15-2.554.4-3.756.4zm12.771-5.608s.05 3.655.25 4.756H127.7c.2-1.051.25-4.757.25-4.757 0-.701-.2-1.352-.701-2.504-1.152-2.353-3.706-6.91-5.909-8.964.851-.1 2.454-.2 3.405-.2 2.003 0 2.604.701 3.105 1.502.401.701 2.103 4.107 2.704 5.559.651-1.603 2.003-4.507 2.604-5.509.501-.75 1.152-1.552 2.855-1.552.801 0 2.053.05 3.055.2-1.603 1.402-4.558 6.46-5.759 8.764-.601 1.152-.651 1.703-.651 2.704zM23.136 7.111c-1.151-.35-3.054-.901-3.054-2.303 0-1.403 1.752-1.703 2.954-1.703 2.654 0 4.357 1.202 4.357 1.202V1.502S26.241 0 22.786 0c-4.257 0-7.712 1.703-7.712 5.058 0 3.405 2.454 4.206 4.106 4.707 1.503.451 3.906 1.052 3.906 2.554 0 1.903-1.752 1.953-2.954 1.953-3.005 0-5.058-1.202-5.058-1.202v2.755s.35 1.652 5.308 1.652c3.706 0 7.812-1.402 7.712-5.208-.05-2.904-1.953-4.256-4.958-5.158z"/><path d="M.5 30.397c.201.15.401.25.602.35.25.101.45.151.6.151.351 0 .602-.1.802-.3.2-.2.3-.451.3-.701a.83.83 0 00-.25-.601c-.2-.15-.45-.3-.851-.451-.25-.1-.501-.25-.651-.3-.15-.1-.35-.2-.501-.351-.15-.15-.3-.35-.4-.55-.1-.351-.151-.602-.151-.902 0-.3.05-.551.15-.802.1-.25.25-.45.45-.65.201-.2.452-.301.752-.401.3-.1.601-.15.952-.15.35 0 .65.05 1.001.15.35.1.651.25.952.4l-.551.902-.05-.05c-.25-.1-.501-.2-.651-.3-.2-.05-.4-.1-.601-.1-.3 0-.601.1-.801.25-.2.15-.351.4-.351.7 0 .251.1.501.3.652.2.15.501.3.902.5.25.1.5.25.65.3.201.101.351.201.502.351.2.15.35.35.4.551.1.2.15.451.15.751s-.05.551-.15.802c-.1.25-.25.45-.45.65-.2.201-.451.351-.752.451-.3.1-.6.15-.901.15a3.49 3.49 0 01-1.853-.55l.45-.902zm11.218-1.152c0 .852-.25 1.503-.801 1.954-.5.45-1.202.7-2.053.7-.852 0-1.503-.25-2.003-.7-.501-.451-.752-1.152-.752-2.004v-4.356h1.302v4.406c0 .451.15.852.451 1.102.3.3.651.4 1.102.4.5 0 .851-.15 1.152-.45.25-.3.4-.7.4-1.152l.05-4.356h1.302l-.15 4.456zm2.354-4.155l1.202-.352 3.205 5.309-.1-5.158h1.302l-.05 6.66-1.302.35-3.155-5.258.1 5.109h-1.252l.05-6.66zm9.164.85h-1.953v-1.1h5.108v1.101h-1.853l-.05 5.81h-1.302l.05-5.81zm4.507.952c.2-.45.451-.801.802-1.152.35-.35.75-.6 1.201-.751.451-.2.952-.25 1.453-.25.55 0 1.051.1 1.502.25.45.2.852.45 1.152.751.35.35.6.701.751 1.152.2.45.25.901.25 1.402 0 .5-.1.952-.3 1.402-.2.451-.45.801-.801 1.152-.35.35-.751.601-1.202.751-.45.2-.952.25-1.452.25-.501 0-1.002-.1-1.453-.25-.45-.2-.851-.45-1.201-.75-.351-.301-.601-.702-.802-1.153-.2-.45-.3-.901-.3-1.452.15-.45.25-.901.4-1.352zm1.252 2.454c.1.3.25.6.501.801.2.25.45.4.751.5.3.1.601.201.952.201.35 0 .65-.05.951-.2.3-.15.551-.3.752-.551.2-.25.35-.5.5-.801.1-.3.15-.651.15-.952 0-.35-.05-.7-.15-1.001-.1-.3-.25-.601-.5-.802-.2-.25-.451-.4-.752-.55-.3-.15-.6-.2-.951-.2-.3 0-.601.05-.852.15-.3.1-.55.3-.75.5-.251.2-.401.501-.552.801-.15.3-.2.651-.2 1.052-.05.4.05.751.15 1.052zm7.863-4.507h2.203c.4 0 .751.05 1.052.15.3.1.55.25.751.4.2.2.35.401.4.652.1.25.15.5.15.8 0 .451-.1.802-.35 1.102-.25.3-.55.551-1.001.702l1.953 2.554-1.152.7-1.903-2.654a.526.526 0 00-.45-.25h-.401v2.754h-1.302l.05-6.91zm2.053 3.105c.1 0 .25 0 .35-.05.15-.05.25-.1.351-.15.1-.101.2-.201.3-.351.1-.15.1-.3.1-.551a.9.9 0 00-.35-.751c-.2-.15-.5-.25-.851-.25h-.751v2.052h.85v.05zm6.109.951l-2.303-3.505 1.152-.652 1.802 2.955 1.853-2.955 1.152.652-2.354 3.505-.05 2.905H44.92l.1-2.905zm9.014-4.056h2.354c.65 0 1.152.15 1.552.5.401.351.601.752.601 1.302 0 .451-.1.852-.35 1.102-.25.3-.501.45-.852.5.401.051.752.251.952.552.25.3.35.65.35 1.101 0 .551-.2 1.052-.6 1.353-.401.3-.952.5-1.603.5h-2.504l.1-6.91zm2.104 5.959c.4 0 .7-.1.951-.25.2-.15.3-.401.3-.702 0-.7-.45-1.051-1.402-1.051h-.7l-.05 2.003h.9zm-.1-3.005c.35 0 .65-.1.9-.25.251-.15.351-.4.351-.751 0-.3-.1-.551-.3-.701-.2-.15-.5-.25-.902-.25h-.8v1.952h.75zm4.807-2.954h3.706v1.101h-2.454v1.753h2.404v1.052h-2.404v1.903h2.454v1.101h-3.756l.05-6.91zm5.158.301l1.302-.402 1.753 5.409 2.003-5.409 1.252.401-2.654 6.66h-1.202l-2.454-6.66zm7.912-.301h3.706v1.101h-2.403v1.753h2.403v1.052h-2.403v1.903h2.453v1.101h-3.756v-6.91zm5.86 0h2.203c.4 0 .751.05 1.052.15.3.1.55.25.751.4.2.2.35.401.4.652.1.25.15.5.15.8 0 .451-.1.802-.35 1.102-.25.3-.55.551-1.001.702l1.953 2.554-1.152.7-1.903-2.654a.526.526 0 00-.45-.25h-.401v2.754h-1.302l.05-6.91zm2.053 3.105c.1 0 .25 0 .35-.05.15-.05.25-.1.351-.15.1-.101.2-.201.3-.351.1-.15.1-.3.1-.551a.9.9 0 00-.35-.751c-.2-.15-.5-.25-.851-.25h-.751v2.052h.85v.05zm5.558 3.956l-1.201-.35 2.654-6.711h1.202l2.453 6.71-1.251.35-.702-1.952h-2.403l-.752 1.953zm2.004-5.71l-.902 2.705h1.703l-.801-2.704zm8.914 2.054h1.352l-.05 3.155c-.401.15-.802.25-1.202.35-.4.1-.751.15-1.152.15-.5 0-1.002-.1-1.452-.25-.451-.2-.852-.45-1.202-.75-.35-.301-.601-.702-.801-1.153-.2-.45-.3-.901-.3-1.452 0-.5.1-.951.3-1.402.2-.45.45-.801.8-1.152.351-.35.752-.6 1.203-.751.45-.2.951-.25 1.452-.25.45 0 .851.05 1.202.15.4.1.7.2 1.001.4l-.45.952c-.3-.15-.551-.25-.852-.3-.3-.05-.6-.1-.901-.1-.3 0-.601.05-.851.15-.3.1-.551.3-.751.5-.25.2-.401.501-.551.802-.15.3-.2.65-.2 1.051 0 .35.05.701.15 1.052.1.3.25.6.5.801.2.25.451.4.751.5.3.101.601.201.952.201.35 0 .701-.05 1.002-.2l.05-2.454zm3.505-3.405h3.706v1.101h-2.404v1.753h2.404v1.052h-2.404v1.903h2.454v1.101h-3.756v-6.91zm13.872 6.26c-.301.25-.601.5-.952.6-.35.15-.701.2-1.151.2-.451 0-.852-.1-1.202-.25-.351-.15-.601-.35-.751-.6-.201-.251-.301-.451-.351-.702-.05-.25-.1-.45-.1-.6 0-.451.15-.852.4-1.253a3.65 3.65 0 011.002-.951c-.2-.25-.351-.45-.401-.651-.1-.2-.15-.45-.15-.701 0-.45.15-.801.451-1.102.3-.25.701-.4 1.152-.4.4 0 .801.15 1.051.4.301.25.451.601.451 1.002 0 .35-.1.65-.3.901-.201.25-.451.5-.802.701l1.453 1.553c.05-.2.1-.401.1-.651s.05-.501.05-.802h1.102c0 .902-.151 1.653-.451 2.304l1.001 1.102-.851.75-.751-.85zm-2.504-2.755c-.25.2-.401.4-.551.601-.15.2-.2.4-.2.651 0 .35.1.701.35.902.251.25.551.35.902.35.2 0 .45-.05.651-.15.2-.1.4-.25.601-.4l-1.753-1.954zm-.15-2.153c0 .25.15.5.45.801a1.9 1.9 0 00.451-.45.8.8 0 00.15-.401c0-.15-.05-.3-.15-.35a.451.451 0 00-.35-.151c-.351 0-.551.2-.551.55zm9.865-1.352h3.806v1.101h-2.504v1.753h2.504v1.102h-2.504v2.954h-1.302v-6.91zm5.609 2.053c.2-.45.45-.801.801-1.152.351-.35.751-.6 1.202-.751.451-.15.951-.25 1.452-.25.551 0 1.052.1 1.502.25.451.2.852.45 1.152.751.351.35.601.701.751 1.152.201.45.251.901.251 1.402 0 .5-.1.952-.301 1.402-.2.451-.45.801-.801 1.152-.35.35-.751.601-1.202.751-.45.2-.951.25-1.452.25s-1.002-.1-1.452-.25c-.451-.2-.852-.45-1.202-.75-.351-.301-.601-.702-.801-1.153a3.415 3.415 0 01-.301-1.452c.1-.45.2-.901.401-1.352zm1.252 2.454c.1.3.25.6.5.801.201.25.451.4.752.5.3.1.601.201.951.201.351 0 .651-.05.952-.2.3-.15.55-.3.751-.551.2-.25.35-.5.501-.801.1-.3.15-.651.15-.952 0-.35-.05-.7-.15-1.001-.101-.3-.251-.601-.501-.802-.201-.25-.451-.4-.751-.55-.301-.15-.601-.2-.952-.2-.3 0-.601.05-.851.15-.301.1-.551.3-.751.5-.251.2-.401.501-.551.801-.15.3-.201.651-.201 1.052-.05.4 0 .751.151 1.052zm7.762-2.454c.2-.45.451-.801.801-1.152.351-.35.751-.6 1.202-.751.451-.15.952-.25 1.452-.25.551 0 1.052.1 1.503.25.45.2.851.45 1.151.751.351.35.601.701.752 1.152.2.45.25.901.25 1.402 0 .5-.1.952-.3 1.402a3.678 3.678 0 01-.802 1.152c-.35.35-.751.601-1.202.751-.45.2-.951.25-1.452.25a4.65 4.65 0 01-1.452-.25 4.88 4.88 0 01-1.202-.75c-.351-.301-.601-.702-.801-1.153a3.415 3.415 0 01-.301-1.452c.1-.45.201-.901.401-1.352zm1.202 2.454c.1.3.25.6.501.801.2.25.45.4.751.5.3.1.601.201.951.201.351 0 .651-.05.952-.2.3-.15.551-.3.751-.551.2-.25.35-.5.501-.801.1-.3.15-.651.15-.952 0-.35-.05-.7-.15-1.001-.101-.3-.251-.601-.501-.802-.2-.25-.451-.4-.751-.55-.301-.15-.601-.2-.952-.2-.3 0-.601.05-.851.15-.301.1-.551.3-.751.5-.251.2-.401.501-.551.801-.15.3-.2.651-.2 1.052 0 .4.05.751.15 1.052zm7.862-4.507h2.253c.551 0 1.052.1 1.503.25.45.15.851.4 1.152.701.3.3.55.651.751 1.102.15.4.25.901.25 1.402 0 .5-.1.951-.3 1.402a2.99 2.99 0 01-.802 1.102c-.35.3-.701.55-1.151.701-.451.15-.852.25-1.353.25h-2.353l.05-6.91zm2.053 5.809c.751 0 1.352-.2 1.803-.651.451-.4.701-1.002.701-1.753 0-.35-.05-.651-.15-.901-.1-.3-.251-.501-.451-.752-.2-.2-.451-.35-.701-.5-.301-.1-.601-.15-.901-.15h-1.052l-.05 4.707h.801z"/></g><defs><clipPath id="clip0"><path fill="#fff" d="M0 0h152.488v32H0z"/></clipPath></defs></svg>