<svg width="119" height="32" fill="none" xmlns="http://www.w3.org/2000/svg"><path d="M79.141 21.912c1.565 0 3.13-.584 4.282-1.666l2.06 2.249c-1.4 1.5-3.295 2.5-6.342 2.5-5.106 0-8.482-3.416-8.482-8.082-.083-4.415 3.376-7.997 7.659-8.081h.247c5.106 0 7.988 3.916 7.74 9.415h-11.94c.411 2.249 1.976 3.665 4.776 3.665zm3.624-6.248c-.33-2.084-1.565-3.666-4.035-3.666-2.306 0-3.954 1.333-4.365 3.666h8.4zM0 21.744l9.306-9.58H.247v-3h13.34v3.083l-9.304 9.498h9.388v3H0v-3zm24.13.167c1.564 0 3.129-.583 4.2-1.666l2.059 2.25c-1.4 1.5-3.295 2.5-6.342 2.5-5.106 0-8.4-3.416-8.4-8.082-.082-4.415 3.377-7.997 7.66-8.081h.246c5.106 0 7.988 3.916 7.741 9.415H19.353c.412 2.249 1.976 3.665 4.776 3.665zm3.623-6.248c-.33-2.084-1.564-3.666-4.035-3.666-2.306 0-3.953 1.333-4.365 3.666h8.4zm23.717 1.25c0-5 3.706-8.082 7.742-8.082 1.976 0 3.87.833 5.106 2.333V2h3.294v22.745h-3.294v-2.166c-1.318 1.583-3.212 2.5-5.189 2.416-3.953 0-7.658-3.083-7.658-8.082zm13.013 0c-.083-2.75-2.307-4.833-5.024-4.833-2.718.084-4.776 2.333-4.776 5.082.081 2.666 2.223 4.833 4.858 4.833 2.883 0 4.942-2.25 4.942-5.082zM88.53 21.41l2.965-1.582c.823 1.499 2.305 2.332 3.952 2.249 1.894 0 2.8-1 2.8-2.082 0-1.25-1.812-1.5-3.706-1.917-2.635-.583-5.353-1.416-5.353-4.666 0-2.416 2.306-4.749 5.93-4.665 2.882 0 5.024 1.166 6.259 2.999l-2.718 1.5c-.824-1.167-2.059-1.833-3.459-1.75-1.73 0-2.635.833-2.635 1.833 0 1.166 1.4 1.416 3.623 1.916 2.553.583 5.435 1.416 5.435 4.665 0 2.167-1.893 5-6.258 5-3.212.083-5.518-1.167-6.835-3.5zm21.905-3.582l-2.553 2.916v4.082h-3.294V2h3.294v14.913l6.918-7.748h4.035l-6.011 6.665L119 24.745h-3.706l-4.859-6.915v-.001zM41.506 8.832c-3.871 0-7.165 2.582-7.165 6.832v9.08h3.376V16.08c0-2.583 1.482-4.082 3.953-4.082 2.47 0 3.706 1.5 3.706 4.082v8.665h3.294v-9.081c0-4.25-3.294-6.832-7.165-6.832h.001z" fill="#04363D"/></svg>